<?xml version="1.0" standalone="no"?>
<!DOCTYPE svg PUBLIC "-//W3C//DTD SVG 20010904//EN"
 "http://www.w3.org/TR/2001/REC-SVG-20010904/DTD/svg10.dtd">
<svg version="1.0" xmlns="http://www.w3.org/2000/svg"
 width="1550.000000pt" height="500.000000pt" viewBox="0 0 1550.000000 500.000000"
 preserveAspectRatio="xMidYMid meet">

<g transform="translate(0.000000,500.000000) scale(0.100000,-0.100000)"
fill="#000000" stroke="none">
<path d="M9835 4629 c-133 -25 -266 -92 -318 -161 -54 -71 -71 -125 -72 -228
0 -128 20 -185 90 -255 72 -71 153 -109 325 -150 303 -73 340 -89 340 -142 0
-62 -48 -86 -175 -86 -133 -1 -195 35 -209 122 l-6 41 -195 0 -195 0 0 -37 c0
-58 28 -163 55 -209 79 -135 248 -203 530 -212 233 -7 389 34 501 131 148 129
164 421 30 545 -85 79 -161 109 -406 163 -231 50 -264 67 -258 131 4 46 67 78
154 78 104 0 160 -34 170 -102 l7 -38 195 0 195 0 -5 63 c-3 34 -15 85 -28
114 -44 103 -181 195 -338 228 -81 17 -304 19 -387 4z"/>
<path d="M12570 4624 c-206 -44 -357 -159 -429 -326 -57 -134 -72 -387 -32
-541 57 -218 201 -361 426 -423 94 -26 323 -30 441 -9 196 35 354 145 429 298
48 99 65 173 72 307 18 382 -153 625 -489 694 -96 20 -326 20 -418 0z m314
-306 c59 -18 129 -91 151 -159 25 -74 27 -280 2 -359 -20 -66 -64 -123 -120
-153 -35 -18 -58 -22 -137 -22 -86 0 -99 3 -143 28 -94 55 -127 140 -127 322
0 191 39 282 143 331 59 27 161 33 231 12z"/>
<path d="M2175 4619 c-304 -29 -631 -138 -895 -297 -187 -113 -415 -312 -553
-482 -211 -261 -366 -588 -432 -910 -195 -956 278 -1918 1152 -2346 583 -286
1283 -286 1866 0 598 293 1020 838 1153 1491 126 618 -34 1271 -433 1765 -138
170 -366 369 -553 482 -388 234 -853 340 -1305 297z m120 -331 c3 -13 4 -291
3 -618 l-3 -595 -37 -48 c-34 -43 -38 -55 -38 -105 0 -102 59 -162 160 -162
101 0 160 60 160 162 0 50 -4 62 -37 105 l-38 48 -2 605 c-2 362 1 611 6 620
20 30 328 -24 514 -90 136 -49 341 -154 373 -192 l24 -30 0 -586 0 -587 -35
-43 c-61 -78 -68 -137 -24 -209 43 -70 153 -95 220 -50 50 34 79 82 79 133 0
54 -12 85 -50 133 l-30 37 2 519 c3 603 -4 567 104 463 375 -360 588 -918 544
-1431 -45 -534 -304 -1003 -731 -1324 -98 -74 -268 -173 -296 -173 l-23 0 0
472 0 472 109 109 c61 61 114 106 120 103 7 -5 11 -45 11 -105 0 -89 -2 -101
-25 -132 -34 -47 -65 -110 -65 -135 0 -33 21 -87 44 -112 33 -37 70 -52 129
-52 95 0 157 64 157 161 0 38 -8 58 -40 107 l-40 60 0 196 0 197 67 71 c176
188 201 208 258 208 47 0 95 28 129 73 30 40 30 144 0 184 -53 73 -160 91
-229 39 -44 -34 -64 -73 -72 -139 l-6 -52 -354 -350 -353 -350 -2 -550 c-3
-514 -4 -550 -20 -553 -17 -3 -18 37 -18 731 l0 734 22 29 c12 16 79 88 150
160 l128 131 0 275 0 275 38 48 c34 45 37 53 37 116 0 53 -4 74 -21 96 -67 89
-201 89 -268 0 -17 -22 -21 -43 -21 -96 0 -63 3 -71 38 -116 l37 -48 0 -232
c0 -273 19 -227 -172 -421 l-128 -131 0 -811 c0 -715 -2 -812 -15 -812 -13 0
-15 105 -15 882 l0 883 37 53 c47 69 55 130 24 191 -53 103 -185 119 -264 32
-63 -70 -58 -154 15 -244 l23 -29 -1 -890 c-1 -742 -4 -892 -15 -899 -8 -5
-34 -8 -59 -7 l-45 3 -3 628 c-2 683 -6 634 53 716 20 26 25 46 25 90 0 101
-59 161 -160 161 -101 0 -160 -60 -160 -161 0 -44 5 -64 25 -90 59 -82 55 -33
53 -716 l-3 -628 -46 -3 c-32 -2 -50 2 -59 13 -10 12 -13 196 -14 903 l-1 888
33 42 c76 96 60 206 -38 261 -102 57 -226 -9 -237 -126 -5 -52 8 -92 52 -152
l25 -34 0 -867 c0 -746 -2 -869 -15 -886 -13 -17 -14 77 -15 795 l0 814 -128
131 c-191 194 -172 148 -172 420 l0 231 36 52 c79 116 45 238 -76 274 -112 34
-232 -85 -200 -198 5 -21 26 -58 45 -82 l35 -44 0 -275 0 -275 139 -141 c76
-78 144 -151 150 -163 8 -15 11 -233 11 -753 0 -691 -1 -731 -17 -728 -17 3
-18 40 -23 556 l-5 552 -353 353 -353 353 -8 58 c-8 60 -29 96 -75 130 -39 29
-133 29 -173 0 -98 -73 -99 -205 -2 -276 14 -11 51 -23 82 -27 63 -9 64 -9
190 -136 152 -154 137 -117 137 -339 0 -190 0 -194 -25 -227 -62 -84 -72 -173
-27 -236 45 -64 158 -84 222 -40 94 62 99 160 15 276 -22 30 -25 44 -25 125 0
50 5 98 10 106 7 12 31 -7 120 -96 l110 -110 0 -472 0 -472 -23 0 c-28 0 -198
99 -296 173 -427 321 -686 790 -731 1324 -44 513 169 1071 544 1431 108 104
101 139 104 -457 l2 -515 -40 -59 c-33 -50 -40 -69 -40 -109 0 -110 88 -184
197 -163 48 9 107 68 122 120 14 51 2 96 -44 159 l-35 50 0 582 0 582 24 30
c33 38 238 143 377 193 139 49 347 93 466 97 37 2 43 -1 48 -20z"/>
<path d="M5220 3975 l0 -645 540 0 540 0 0 165 0 165 -332 2 -333 3 -3 478 -2
477 -205 0 -205 0 0 -645z"/>
<path d="M6839 4593 c-24 -64 -459 -1255 -459 -1259 0 -2 96 -4 213 -4 l214 0
24 88 24 87 227 3 227 2 27 -90 27 -90 219 0 c120 0 218 3 218 8 0 4 -97 273
-216 597 -119 325 -223 611 -232 638 l-16 47 -243 0 -243 0 -11 -27z m315
-560 c36 -123 66 -225 66 -228 0 -3 -61 -5 -135 -5 -74 0 -135 3 -135 8 0 4
29 106 65 227 36 120 65 221 65 224 0 19 17 -32 74 -226z"/>
<path d="M7990 3975 l0 -645 463 0 c515 0 539 2 634 65 99 66 146 156 146 280
0 99 -21 168 -69 224 -35 40 -117 91 -149 91 -26 0 -16 16 19 28 54 20 121 85
146 143 34 80 33 198 -3 272 -33 66 -90 120 -166 156 l-56 26 -482 3 -483 3 0
-646z m740 350 c38 -20 50 -43 50 -100 0 -38 -5 -52 -29 -76 l-29 -29 -161 0
-161 0 0 103 c0 57 3 107 7 110 3 4 71 7 150 7 109 0 151 -4 173 -15z m51
-504 c39 -40 42 -115 5 -158 l-24 -28 -179 0 -178 0 -3 108 -3 107 176 0 177
0 29 -29z"/>
<path d="M10860 3975 l0 -645 205 0 205 0 0 230 0 230 270 0 270 0 0 150 0
150 -267 2 -268 3 -3 108 -3 107 316 0 315 0 0 155 0 155 -520 0 -520 0 0
-645z"/>
<path d="M13740 3975 l0 -645 205 0 205 0 0 235 0 235 78 0 79 0 114 -235 114
-235 233 0 c127 0 232 2 232 4 0 2 -63 122 -140 267 -77 145 -140 264 -140
266 0 1 23 14 50 28 67 34 121 89 156 161 27 55 29 67 29 174 0 106 -2 120
-28 172 -51 105 -153 181 -275 207 -34 7 -205 11 -482 11 l-430 0 0 -645z
m766 313 c38 -43 45 -88 19 -138 -27 -52 -57 -60 -225 -60 l-150 0 0 113 c0
63 3 117 8 121 4 4 76 6 160 4 l154 -3 34 -37z"/>
<path d="M13910 2844 c-314 -29 -572 -126 -715 -269 -115 -114 -171 -248 -181
-429 -16 -283 96 -484 349 -630 66 -38 281 -107 472 -151 432 -99 509 -126
539 -184 34 -65 9 -143 -55 -174 -96 -45 -372 -50 -481 -8 -94 36 -148 118
-148 225 l0 36 -361 0 -360 0 6 -72 c13 -153 38 -245 93 -351 103 -199 318
-321 677 -383 142 -25 494 -30 633 -10 417 62 665 243 754 551 31 109 33 350
4 435 -34 100 -68 154 -141 226 -149 147 -283 200 -780 309 -325 72 -402 105
-426 184 -27 90 58 161 217 181 96 12 206 0 263 -30 70 -35 121 -116 121 -193
l0 -27 353 2 352 3 -2 80 c-5 158 -67 299 -179 410 -121 121 -309 207 -534
246 -102 18 -378 31 -470 23z"/>
<path d="M5190 1641 l0 -1171 584 0 c622 0 719 6 891 51 415 108 645 352 736
781 26 122 36 404 20 547 -47 403 -216 668 -526 823 -108 55 -235 91 -430 124
-22 4 -318 9 -657 11 l-618 5 0 -1171z m1165 584 c136 -35 230 -126 276 -266
23 -70 24 -87 24 -319 0 -209 -3 -254 -18 -305 -41 -132 -100 -204 -211 -256
-78 -36 -164 -49 -343 -49 l-143 0 0 605 0 605 178 0 c128 0 195 -4 237 -15z"/>
<path d="M7880 1640 l0 -1170 1025 0 1025 0 0 280 0 280 -650 0 -650 0 0 175
0 175 545 0 545 0 0 275 0 275 -545 0 -545 0 0 155 0 155 635 0 635 0 0 285 0
285 -1010 0 -1010 0 0 -1170z"/>
<path d="M10190 2803 c0 -4 186 -531 412 -1170 l413 -1163 436 0 437 0 15 42
c8 24 193 548 411 1165 218 616 396 1124 396 1127 0 3 -173 6 -383 6 l-384 0
-158 -522 c-87 -288 -192 -638 -235 -778 -42 -140 -80 -255 -85 -255 -5 0
-104 317 -220 705 -116 388 -221 738 -234 778 l-22 72 -399 0 c-220 0 -400 -3
-400 -7z"/>
</g>
</svg>
