<svg width="49" height="33" viewBox="0 0 49 33" fill="none" xmlns="http://www.w3.org/2000/svg">
<path d="M2.9 32.7V25.9H6.8C9.86667 25.9 11.4 24.3667 11.4 21.3V18.1H9.7C7.03333 18.1 4.8 17.3 3 15.7C1.26667 14.1 0.4 12.0667 0.4 9.6C0.4 6.93333 1.26667 4.76666 3 3.1C4.8 1.43333 7.03333 0.599995 9.7 0.599995C12.4333 0.599995 14.6667 1.46666 16.4 3.2C18.1333 4.86666 19 7.13333 19 10V21.5C19 28.9667 15.2667 32.7 7.8 32.7H2.9ZM32.2945 32.7V25.9H36.1945C39.2612 25.9 40.7945 24.3667 40.7945 21.3V18.1H39.0945C36.4279 18.1 34.1945 17.3 32.3945 15.7C30.6612 14.1 29.7945 12.0667 29.7945 9.6C29.7945 6.93333 30.6612 4.76666 32.3945 3.1C34.1945 1.43333 36.4279 0.599995 39.0945 0.599995C41.8279 0.599995 44.0612 1.46666 45.7945 3.2C47.5279 4.86666 48.3945 7.13333 48.3945 10V21.5C48.3945 28.9667 44.6612 32.7 37.1945 32.7H32.2945Z" fill="#7C6AFA"/>
</svg>
